<svg xmlns="http://www.w3.org/2000/svg" fill="none" viewBox="0 0 178 150" height="150" width="178">
<path fill="#C2E76B" d="M74.482 202.957C74.482 202.957 13.3622 189.176 0.715536 104.264C0.715536 104.264 25.2474 99.3751 51.7403 126.355C51.7403 126.355 12.2623 74.7794 18.1137 49.6118C18.1137 49.6118 59.3792 46.5412 79.0487 76.036C79.0487 76.036 64.5898 37.6004 76.2898 14.1106C76.2898 14.1106 141.936 13.5615 144.86 68.0684C144.86 68.0684 146.573 13.6893 168.423 0.264394C168.423 0.264394 221.291 22.5953 194.754 104.49C194.754 104.49 231.234 100.636 241.766 119.767C241.766 119.767 224.009 171.96 192.605 186.227C192.605 186.227 225.484 195.695 239.424 210.393C239.424 210.393 217.177 242.784 151.043 228.009C111.012 219.063 74.482 202.957 74.482 202.957Z"></path>
</svg>
